<svg width="1194" height="711" xmlns="http://www.w3.org/2000/svg"><g><path d="M-97,-77L-122,553L-88,173Z" fill="#ededed" stroke="#ededed"/><path d="M-97,-77L-88,173L157,73Z" fill="#fcfcfc" stroke="#fcfcfc"/><path d="M-97,-77L157,73L98,-141Z" fill="#f7f7f7" stroke="#f7f7f7"/><path d="M98,-141L157,73L354,-147Z" fill="#eaeaea" stroke="#eaeaea"/><path d="M98,-141L354,-147L1221,-173Z" fill="#c6c6c6" stroke="#c6c6c6"/><path d="M354,-147L157,73L262,164Z" fill="#e5e5e5" stroke="#e5e5e5"/><path d="M354,-147L262,164L513,-69Z" fill="#dadada" stroke="#dadada"/><path d="M354,-147L513,-69L688,-69Z" fill="#cacaca" stroke="#cacaca"/><path d="M354,-147L688,-69L1221,-173Z" fill="#b2b2b2" stroke="#b2b2b2"/><path d="M513,-69L262,164L545,149Z" fill="#d3d3d3" stroke="#d3d3d3"/><path d="M513,-69L545,149L688,-69Z" fill="#c4c4c4" stroke="#c4c4c4"/><path d="M688,-69L545,149L753,133Z" fill="#bbbbbb" stroke="#bbbbbb"/><path d="M688,-69L753,133L937,-47Z" fill="#afafaf" stroke="#afafaf"/><path d="M688,-69L937,-47L1221,-173Z" fill="#9c9c9c" stroke="#9c9c9c"/><path d="M937,-47L753,133L1004,57Z" fill="#a3a3a3" stroke="#a3a3a3"/><path d="M937,-47L1004,57L1221,-173Z" fill="#8e8e8e" stroke="#8e8e8e"/><path d="M1221,-173L1004,57L1098,139Z" fill="#878787" stroke="#878787"/><path d="M1221,-173L1098,139L1339,35Z" fill="#808080" stroke="#808080"/><path d="M1221,-173L1339,35L1402,-36Z" fill="#808080" stroke="#808080"/><path d="M1402,-36L1339,35L1298,357Z" fill="#7d7d7d" stroke="#7d7d7d"/><path d="M1402,-36L1298,357L1385,519Z" fill="#5f5f5f" stroke="#5f5f5f"/><path d="M1402,-36L1385,519L1411,1006Z" fill="#333333" stroke="#333333"/><path d="M-88,173L-122,553L-81,355Z" fill="#cecece" stroke="#cecece"/><path d="M-88,173L-81,355L96,253Z" fill="#e1e1e1" stroke="#e1e1e1"/><path d="M-88,173L96,253L157,73Z" fill="#ededed" stroke="#ededed"/><path d="M157,73L96,253L262,164Z" fill="#e3e3e3" stroke="#e3e3e3"/><path d="M262,164L96,253L247,357Z" fill="#cecece" stroke="#cecece"/><path d="M262,164L247,357L523,327Z" fill="#bdbdbd" stroke="#bdbdbd"/><path d="M262,164L523,327L545,149Z" fill="#c1c1c1" stroke="#c1c1c1"/><path d="M545,149L523,327L705,276Z" fill="#a9a9a9" stroke="#a9a9a9"/><path d="M545,149L705,276L753,133Z" fill="#aeaeae" stroke="#aeaeae"/><path d="M753,133L705,276L921,337Z" fill="#959595" stroke="#959595"/><path d="M753,133L921,337L1004,57Z" fill="#989898" stroke="#989898"/><path d="M1004,57L921,337L1098,139Z" fill="#898989" stroke="#898989"/><path d="M1098,139L921,337L1157,335Z" fill="#707070" stroke="#707070"/><path d="M1098,139L1157,335L1298,357Z" fill="#606060" stroke="#606060"/><path d="M1098,139L1298,357L1339,35Z" fill="#757575" stroke="#757575"/><path d="M-81,355L-122,553L47,494Z" fill="#b9b9b9" stroke="#b9b9b9"/><path d="M-81,355L47,494L96,253Z" fill="#c6c6c6" stroke="#c6c6c6"/><path d="M96,253L47,494L247,357Z" fill="#bdbdbd" stroke="#bdbdbd"/><path d="M247,357L47,494L364,468Z" fill="#a7a7a7" stroke="#a7a7a7"/><path d="M247,357L364,468L523,327Z" fill="#a4a4a4" stroke="#a4a4a4"/><path d="M523,327L364,468L504,553Z" fill="#8d8d8d" stroke="#8d8d8d"/><path d="M523,327L504,553L723,585Z" fill="#787878" stroke="#787878"/><path d="M523,327L723,585L705,276Z" fill="#848484" stroke="#848484"/><path d="M705,276L723,585L921,337Z" fill="#767676" stroke="#767676"/><path d="M921,337L723,585L937,573Z" fill="#5b5b5b" stroke="#5b5b5b"/><path d="M921,337L937,573L1157,335Z" fill="#585858" stroke="#585858"/><path d="M1157,335L937,573L1169,584Z" fill="#3d3d3d" stroke="#3d3d3d"/><path d="M1157,335L1169,584L1298,357Z" fill="#414141" stroke="#414141"/><path d="M1298,357L1169,584L1385,519Z" fill="#353535" stroke="#353535"/><path d="M-122,553L-112,921L-84,786Z" fill="#808080" stroke="#808080"/><path d="M-122,553L-84,786L68,737Z" fill="#808080" stroke="#808080"/><path d="M-122,553L68,737L47,494Z" fill="#969696" stroke="#969696"/><path d="M47,494L68,737L281,789Z" fill="#757575" stroke="#757575"/><path d="M47,494L281,789L364,468Z" fill="#858585" stroke="#858585"/><path d="M364,468L281,789L504,553Z" fill="#717171" stroke="#717171"/><path d="M504,553L281,789L591,698Z" fill="#545454" stroke="#545454"/><path d="M504,553L591,698L723,585Z" fill="#575757" stroke="#575757"/><path d="M723,585L591,698L736,703Z" fill="#424242" stroke="#424242"/><path d="M723,585L736,703L937,573Z" fill="#414141" stroke="#414141"/><path d="M937,573L736,703L883,753Z" fill="#2d2d2d" stroke="#2d2d2d"/><path d="M937,573L883,753L1130,744Z" fill="#191919" stroke="#191919"/><path d="M937,573L1130,744L1169,584Z" fill="#1b1b1b" stroke="#1b1b1b"/><path d="M1169,584L1130,744L1307,753Z" fill="#000000" stroke="#000000"/><path d="M1169,584L1307,753L1385,519Z" fill="#141414" stroke="#141414"/><path d="M1385,519L1307,753L1411,1006Z" fill="#000000" stroke="#000000"/><path d="M-84,786L-112,921L68,737Z" fill="#808080" stroke="#808080"/><path d="M68,737L-112,921L146,1001Z" fill="#797979" stroke="#797979"/><path d="M68,737L146,1001L248,893Z" fill="#6e6e6e" stroke="#6e6e6e"/><path d="M68,737L248,893L281,789Z" fill="#6a6a6a" stroke="#6a6a6a"/><path d="M281,789L248,893L515,900Z" fill="#5e5e5e" stroke="#5e5e5e"/><path d="M281,789L515,900L591,698Z" fill="#515151" stroke="#515151"/><path d="M591,698L515,900L693,952Z" fill="#424242" stroke="#424242"/><path d="M591,698L693,952L736,703Z" fill="#3b3b3b" stroke="#3b3b3b"/><path d="M736,703L693,952L883,753Z" fill="#313131" stroke="#313131"/><path d="M883,753L693,952L969,986Z" fill="#2a2a2a" stroke="#2a2a2a"/><path d="M883,753L969,986L1130,744Z" fill="#171717" stroke="#171717"/><path d="M1130,744L969,986L1122,999Z" fill="#0c0c0c" stroke="#0c0c0c"/><path d="M1130,744L1122,999L1307,753Z" fill="#000000" stroke="#000000"/><path d="M1307,753L1122,999L1411,1006Z" fill="#000000" stroke="#000000"/><path d="M146,1001L1411,1006L1122,999Z" fill="#242424" stroke="#242424"/><path d="M146,1001L1122,999L969,986Z" fill="#343434" stroke="#343434"/><path d="M146,1001L969,986L693,952Z" fill="#424242" stroke="#424242"/><path d="M146,1001L693,952L515,900Z" fill="#525252" stroke="#525252"/><path d="M146,1001L515,900L248,893Z" fill="#626262" stroke="#626262"/></g></svg>